<svg xmlns="http://www.w3.org/2000/svg" xmlns:xlink="http://www.w3.org/1999/xlink" width="500" zoomAndPan="magnify" viewBox="0 0 375 374.999991" height="500" preserveAspectRatio="xMidYMid meet" version="1.0"><path fill="#000000" d="M 364.613281 35.953125 C 362.585938 35.035156 313.980469 14.054688 269.359375 36.148438 C 232.121094 54.582031 184.625 105.765625 199.914062 157.34375 C 195.011719 167.800781 191.355469 178.71875 188.804688 190.027344 C 184.558594 174.402344 163.851562 109.425781 109.363281 85.175781 C 47.300781 57.589844 5.617188 92.824219 3.917969 94.328125 C 1.109375 96.746094 -0.0664062 100.535156 0.847656 104.132812 C 1.175781 105.308594 30.96875 216.695312 150 216.695312 C 157.121094 216.695312 164.570312 216.304688 172.410156 215.457031 C 172.667969 215.457031 172.867188 215.324219 173.128906 215.324219 C 177.636719 223.101562 181.03125 231.40625 182.796875 240.035156 C 177.375 308.34375 180.574219 364.628906 180.574219 365.28125 C 180.902344 370.511719 185.214844 374.5 190.375 374.5 C 190.570312 374.5 190.765625 374.5 190.960938 374.5 C 196.386719 374.171875 200.5 369.53125 200.175781 364.105469 C 200.175781 363.386719 195.925781 288.929688 205.660156 208.003906 C 207.035156 196.695312 209.710938 185.910156 213.699219 175.449219 C 213.960938 175.449219 214.21875 175.582031 214.546875 175.582031 C 214.808594 175.582031 215.070312 175.582031 215.332031 175.582031 C 216.898438 175.449219 374.671875 162.179688 370.621094 44.449219 C 370.492188 40.722656 368.207031 37.324219 364.808594 35.820312 Z M 21.820312 105.636719 C 32.992188 98.707031 62.066406 85.566406 101.460938 103.085938 C 132.097656 116.683594 150.589844 147.015625 160.648438 169.761719 C 129.09375 140.347656 91.265625 123.089844 88.71875 121.976562 C 83.820312 119.753906 78.003906 121.976562 75.785156 126.945312 C 73.5625 131.914062 75.785156 137.664062 80.75 139.886719 C 81.402344 140.214844 129.355469 162.046875 159.667969 196.890625 C 62.914062 202.121094 29.660156 128.253906 21.820312 105.636719 Z M 223.433594 155.054688 C 238.980469 128.382812 264.199219 104.71875 299.609375 83.605469 C 304.246094 80.859375 305.75 74.78125 303.003906 70.140625 C 300.261719 65.5 294.1875 63.996094 289.546875 66.742188 C 258.320312 85.371094 234.277344 106.027344 217.160156 128.90625 C 221.929688 95.046875 255.96875 64.648438 278.113281 53.667969 C 290.199219 47.71875 302.875 45.691406 314.4375 45.691406 C 329.988281 45.691406 343.574219 49.285156 350.894531 51.707031 C 348.671875 131 254.464844 150.675781 223.367188 154.988281 Z M 223.433594 155.054688 " fill-opacity="1" fill-rule="nonzero"/></svg>