<svg xmlns="http://www.w3.org/2000/svg" xmlns:xlink="http://www.w3.org/1999/xlink" width="500" zoomAndPan="magnify" viewBox="0 0 375 374.999991" height="500" preserveAspectRatio="xMidYMid meet" version="1.0"><path fill="#f3f4f6" d="M 364.613281 35.9375 C 362.585938 35.023438 313.980469 14.050781 269.359375 36.132812 C 232.121094 54.558594 184.625 105.710938 199.914062 157.257812 C 195.011719 167.710938 191.355469 178.621094 188.804688 189.921875 C 184.558594 174.308594 163.851562 109.371094 109.363281 85.132812 C 47.300781 57.5625 5.617188 92.777344 3.917969 94.277344 C 1.109375 96.695312 -0.0664062 100.484375 0.847656 104.078125 C 1.175781 105.253906 30.96875 216.578125 150 216.578125 C 157.121094 216.578125 164.570312 216.1875 172.410156 215.335938 C 172.667969 215.335938 172.867188 215.207031 173.128906 215.207031 C 177.636719 222.980469 181.03125 231.277344 182.796875 239.902344 C 177.375 308.171875 180.574219 364.421875 180.574219 365.074219 C 180.902344 370.300781 185.214844 374.289062 190.375 374.289062 C 190.570312 374.289062 190.765625 374.289062 190.960938 374.289062 C 196.386719 373.960938 200.5 369.324219 200.175781 363.898438 C 200.175781 363.179688 195.925781 288.769531 205.660156 207.890625 C 207.035156 196.585938 209.710938 185.808594 213.699219 175.355469 C 213.960938 175.355469 214.21875 175.484375 214.546875 175.484375 C 214.808594 175.484375 215.070312 175.484375 215.332031 175.484375 C 216.898438 175.355469 374.671875 162.09375 370.621094 44.429688 C 370.492188 40.707031 368.207031 37.308594 364.808594 35.808594 Z M 21.820312 105.582031 C 32.992188 98.65625 62.066406 85.523438 101.460938 103.035156 C 132.097656 116.621094 150.589844 146.9375 160.648438 169.671875 C 129.09375 140.273438 91.265625 123.023438 88.71875 121.914062 C 83.820312 119.691406 78.003906 121.914062 75.785156 126.878906 C 73.5625 131.84375 75.785156 137.59375 80.75 139.816406 C 81.402344 140.140625 129.355469 161.960938 159.667969 196.785156 C 62.914062 202.011719 29.660156 128.1875 21.820312 105.582031 Z M 223.433594 154.972656 C 238.980469 128.316406 264.199219 104.667969 299.609375 83.566406 C 304.246094 80.820312 305.75 74.746094 303.003906 70.105469 C 300.261719 65.46875 294.1875 63.964844 289.546875 66.710938 C 258.320312 85.328125 234.277344 105.972656 217.160156 128.839844 C 221.929688 94.996094 255.96875 64.617188 278.113281 53.644531 C 290.199219 47.699219 302.875 45.671875 314.4375 45.671875 C 329.988281 45.671875 343.574219 49.265625 350.894531 51.683594 C 348.671875 130.929688 254.464844 150.59375 223.367188 154.90625 Z M 223.433594 154.972656 " fill-opacity="1" fill-rule="nonzero"/></svg>